<svg xmlns="http://www.w3.org/2000/svg" xmlns:xlink="http://www.w3.org/1999/xlink" xmlns:lucid="lucid" width="1842.5" height="1500"><g transform="translate(-13.500049999999938 -20)" lucid:page-tab-id="0_0"><path d="M0 0h1870.87v2581.67H0z" fill="#fff"/><path d="M660 606a6 6 0 0 1 6-6h168a6 6 0 0 1 6 6v308a6 6 0 0 1-6 6H666a6 6 0 0 1-6-6z" stroke="#3a414a" fill="#fff"/><use xlink:href="#a" transform="matrix(1,0,0,1,672,612) translate(15.839506172839506 151.90277777777777)"/><use xlink:href="#b" transform="matrix(1,0,0,1,672,612) translate(104.54320987654322 151.90277777777777)"/><path d="M60 686a6 6 0 0 1 6-6h108a6 6 0 0 1 6 6v208a6 6 0 0 1-6 6H66a6 6 0 0 1-6-6z" stroke="#3a414a" fill="#fff"/><use xlink:href="#c" transform="matrix(1,0,0,1,72,692) translate(32.598765432098766 103.52777777777777)"/><path d="M240 646a6 6 0 0 1 6-6h148a6 6 0 0 1 6 6v248a6 6 0 0 1-6 6H246a6 6 0 0 1-6-6z" stroke="#3a414a" fill="#fff"/><use xlink:href="#d" transform="matrix(1,0,0,1,252,652) translate(16.827160493827158 106.65277777777777)"/><use xlink:href="#e" transform="matrix(1,0,0,1,252,652) translate(27.96913580246914 133.31944444444446)"/><path d="M880 1100c0 44.18-26.86 80-60 80s-60-35.82-60-80 26.86-80 60-80 60 35.82 60 80z" stroke="#3a414a" fill="#fff"/><use xlink:href="#f" transform="matrix(1,0,0,1,765,1025) translate(9.382716049382722 78.71527777777777)"/><use xlink:href="#g" transform="matrix(1,0,0,1,765,1025) translate(58.64197530864198 78.71527777777777)"/><path d="M1020 888c0 17.67-17.9 32-40 32s-40-14.33-40-32v-96c0-17.67 17.9-32 40-32s40 14.33 40 32z" stroke="#3a414a" fill="#fff"/><use xlink:href="#h" transform="matrix(6.123233995736766e-17,1,-1,6.123233995736766e-17,1015,765) translate(50.370370370370374 39.65277777777778)"/><path d="M1460 666a6 6 0 0 1 6-6h148a6 6 0 0 1 6 6v368a6 6 0 0 1-6 6h-148a6 6 0 0 1-6-6z" stroke="#3a414a" fill="#fff"/><use xlink:href="#i" transform="matrix(1,0,0,1,1472,672) translate(1.4567901234567984 185.12152777777777)"/><use xlink:href="#e" transform="matrix(1,0,0,1,1472,672) translate(54.48148148148149 185.12152777777777)"/><path d="M1760 908c0 17.67-17.9 32-40 32s-40-14.33-40-32v-96c0-17.67 17.9-32 40-32s40 14.33 40 32z" stroke="#3a414a" fill="#fff"/><use xlink:href="#h" transform="matrix(6.123233995736766e-17,1,-1,6.123233995736766e-17,1755,785.0000000000005) translate(50.370370370370374 39.65277777777778)"/><path d="M1220 1120c0 44.18-26.86 80-60 80s-60-35.82-60-80 26.86-80 60-80 60 35.82 60 80z" stroke="#3a414a" fill="#fff"/><use xlink:href="#j" transform="matrix(1,0,0,1,1105,1045) translate(-2.2839506172839563 79.44444444444444)"/><path d="M760 460c0 55.23-26.86 100-60 100s-60-44.77-60-100 26.86-100 60-100 60 44.77 60 100z" stroke="#3a414a" fill="#fff"/><use xlink:href="#k" transform="matrix(1,0,0,1,645,365) translate(19.29012345679012 100.90277777777777)"/><path d="M1600 172c0 15.46-13.43 28-30 28s-30-12.54-30-28V88c0-15.46 13.43-28 30-28s30 12.54 30 28z" stroke="#3a414a" fill="#fff"/><use xlink:href="#h" transform="matrix(6.123233995736766e-17,1,-1,6.123233995736766e-17,1595,65) translate(40.370370370370374 30.27777777777778)"/><path d="M1000 248.12c0 22.1-17.9 40-40 40s-40-17.9-40-40 17.9-40 40-40 40 17.9 40 40z" stroke="#3a414a" fill="#fff"/><use xlink:href="#l" transform="matrix(1,0,0,1,925,213.1188070784312) translate(12.81364197530864 26.52777777777778)"/><use xlink:href="#m" transform="matrix(1,0,0,1,925,213.1188070784312) translate(10.961790123456792 53.19444444444445)"/><use xlink:href="#n" transform="matrix(1,0,0,1,925,213.1188070784312) translate(29.48030864197531 53.19444444444445)"/><path d="M1460 286a6 6 0 0 1 6-6h24c16.57 0 30 13.43 30 30s-13.43 30-30 30h-24a6 6 0 0 1-6-6z" stroke="#3a414a" fill="#fff"/><path d="M181 731.34h42.12" stroke="#3a414a" fill="none"/><path d="M181 731.84h-.5v-1h.5z" stroke="#3a414a" stroke-width=".05" fill="#3a414a"/><path d="M237.88 731.34l-14.26 4.64v-9.27z" stroke="#3a414a" fill="#3a414a"/><path d="M1665.02 39.58l1 .24.93.4.87.52.78.66.66.78.53.87.38.94.24.98.08 1v78.04l-.08 1-.24 1-.4.93-.52.87-.66.78-.78.66-.87.53-.94.38-.98.24-1 .08H1601v-1h62.98l.88-.07.84-.2.8-.33.73-.45.66-.56.55-.67.45-.73.33-.8.2-.84.07-.88V46.02l-.07-.88-.2-.84-.33-.8-.45-.73-.56-.66-.67-.55-.73-.45-.8-.33-.84-.2-.88-.07H25.52l-.88.07-.84.2-.8.33-.73.45-.66.56-.55.67-.45.73-.33.8-.2.84-.07.88v737.96l.07.88.2.84.33.8.45.73.56.66.67.55.73.45.8.33.84.2.88.07h17.6v1H25.48l-1-.08-1-.24-.93-.4-.87-.52-.78-.66-.66-.78-.53-.87-.38-.94-.24-.98-.08-1V45.98l.08-1 .24-1 .4-.93.52-.87.66-.78.78-.66.87-.53.94-.38.98-.24 1-.08h1638.54z" stroke="#3a414a" stroke-width=".05" fill="#3a414a"/><path d="M1601 130.5h-.5v-1h.5z" fill="#3a414a"/><path d="M1601.04 130.53h-.57v-1.06h.57zm-.5-1v.94h.45v-.94z" stroke="#3a414a" stroke-width=".05" fill="#3a414a"/><path d="M57.88 790l-14.26 4.63v-9.26z" fill="#3a414a"/><path d="M59.5 790l-16.38 5.32v-10.64zm-15.38 3.95L56.26 790l-12.14-3.95z" stroke="#3a414a" stroke-width=".05" fill="#3a414a"/><path d="M205.52 730.84V194a6 6 0 0 1 6-6h51.6M205.52 730.83v.5" stroke="#3a414a" fill="none"/><path d="M277.88 188l-14.26 4.63v-9.26z" stroke="#3a414a" fill="#3a414a"/><path d="M180 86a6 6 0 0 1 6-6h48a6 6 0 0 1 6 6v48a6 6 0 0 1-6 6h-48a6 6 0 0 1-6-6z" stroke="#000" stroke-opacity="0" fill="#fff" fill-opacity="0"/><use xlink:href="#o" transform="matrix(1,0,0,1,185,85) translate(18.82716049382716 30.27777777777778)"/><path d="M240.5 110h22.62" stroke="#3a414a" fill="none"/><path d="M240.5 110.5h-.5v-1h.5z" stroke="#3a414a" stroke-width=".05" fill="#3a414a"/><path d="M277.88 110l-14.26 4.64v-9.28z" stroke="#3a414a" fill="#3a414a"/><path d="M381 140h573a6 6 0 0 0 6-6V92.12a6 6 0 0 1 6-6h557.27" stroke="#3a414a" fill="none"/><path d="M381 140.5h-.5v-1h.5z" stroke="#3a414a" stroke-width=".05" fill="#3a414a"/><path d="M1538.04 86.12l-14.27 4.63v-9.27z" stroke="#3a414a" fill="#3a414a"/><path d="M1001 248.12h102.12" stroke="#3a414a" fill="none"/><path d="M1001 248.62h-.53l.03-.5-.02-.5h.53z" stroke="#3a414a" stroke-width=".05" fill="#3a414a"/><path d="M1117.88 248.12l-14.26 4.63v-9.27z" stroke="#3a414a" fill="#3a414a"/><path d="M206.02 314.62h450.5a6 6 0 0 0 6-6v-137.1a6 6 0 0 1 6-6h434.6M206.03 314.62h-.5" stroke="#3a414a" fill="none"/><path d="M1117.88 165.5l-14.26 4.65v-9.27z" stroke="#3a414a" fill="#3a414a"/><path d="M623.12 460.5h-187.1l-.88.07-.84.2-.8.33-.73.45-.66.56-.55.67-.45.73-.33.8-.2.84-.07.88v298l-.08 1-.24 1-.4.93-.52.87-.66.78-.78.66-.87.53-.94.38-.98.24-1 .08H401v-1h22.98l.88-.07.84-.2.8-.33.73-.45.66-.56.55-.67.45-.73.33-.8.2-.84.07-.88v-298l.08-1 .24-1 .4-.93.52-.87.66-.78.78-.66.87-.53.94-.38.98-.24 1-.08h187.14z" stroke="#3a414a" stroke-width=".05" fill="#3a414a"/><path d="M401 770.5h-.5v-1h.5z" fill="#3a414a"/><path d="M401.04 770.52h-.56v-1.04h.56zm-.52-1v.96h.47v-.96z" stroke="#3a414a" stroke-width=".05" fill="#3a414a"/><path d="M637.88 460l-14.26 4.63v-9.26z" fill="#3a414a"/><path d="M639.5 460l-16.38 5.32v-10.64zm-15.38 3.95l12.14-3.95-12.14-3.95z" stroke="#3a414a" stroke-width=".05" fill="#3a414a"/><path d="M841 812.1h82.12" stroke="#3a414a" fill="none"/><path d="M841 812.6h-.5v-1h.5z" stroke="#3a414a" stroke-width=".05" fill="#3a414a"/><path d="M937.88 812.1l-14.26 4.63v-9.27z" stroke="#3a414a" fill="#3a414a"/><path d="M881 1100h23a6 6 0 0 0 6-6V877.8a6 6 0 0 1 6-6h7.12" stroke="#3a414a" fill="none"/><path d="M881 1100.5h-.5v-1h.5z" stroke="#3a414a" stroke-width=".05" fill="#3a414a"/><path d="M937.88 871.8l-14.26 4.63v-9.27z" stroke="#3a414a" fill="#3a414a"/><path d="M841 691.3h252.12" stroke="#3a414a" fill="none"/><path d="M841 691.8h-.5v-1h.5z" stroke="#3a414a" stroke-width=".05" fill="#3a414a"/><path d="M1107.88 691.3l-14.26 4.63v-9.27z" stroke="#3a414a" fill="#3a414a"/><path d="M1021 840h38a6 6 0 0 0 6-6v-27.5a6 6 0 0 1 6-6h22.12" stroke="#3a414a" fill="none"/><path d="M1021 840.5h-.5v-1h.5z" stroke="#3a414a" stroke-width=".05" fill="#3a414a"/><path d="M1107.88 800.5l-14.26 4.63v-9.26z" stroke="#3a414a" fill="#3a414a"/><path d="M1160 1039V827.17" stroke="#3a414a" fill="none"/><path d="M1160.5 1039.52l-.5-.02h-.5v-.5h1z" stroke="#3a414a" stroke-width=".05" fill="#3a414a"/><path d="M1160 812.4l4.63 14.27h-9.27z" stroke="#3a414a" fill="#3a414a"/><path d="M862.4 812.6v162.94a6 6 0 0 0 6 6h574.72M862.4 812.6v-.5" stroke="#3a414a" fill="none"/><path d="M1457.88 981.54l-14.26 4.63v-9.27z" stroke="#3a414a" fill="#3a414a"/><path d="M1211 764.35h232.12" stroke="#3a414a" fill="none"/><path d="M1211 764.85h-.5v-1h.5z" stroke="#3a414a" stroke-width=".05" fill="#3a414a"/><path d="M1457.88 764.35l-14.26 4.63v-9.27z" stroke="#3a414a" fill="#3a414a"/><path d="M1621 819.77h42.12" stroke="#3a414a" fill="none"/><path d="M1621 820.27h-.5v-1h.5z" stroke="#3a414a" stroke-width=".05" fill="#3a414a"/><path d="M1677.88 819.77l-14.27 4.64.02-9.26z" stroke="#3a414a" fill="#3a414a"/><path d="M1761 860h33a6 6 0 0 1 6 6v398a6 6 0 0 1-6 6H466a6 6 0 0 1-6-6V878.75a6 6 0 0 1 6-6h37.12" stroke="#3a414a" fill="none"/><path d="M1761 860.5h-.5v-1h.5z" stroke="#3a414a" stroke-width=".05" fill="#3a414a"/><path d="M517.88 872.75l-14.26 4.63v-9.26z" stroke="#3a414a" fill="#3a414a"/><path d="M1570.5 304.02l-.08 1-.24 1-.4.93-.52.87-.66.78-.78.66-.87.53-.94.38-.98.24-1 .08H1521v-1h42.98l.88-.07.84-.2.8-.33.73-.45.66-.56.55-.67.45-.73.33-.8.2-.84.07-.88v-27.85h1zm0-49.23h-1v-37.92h1z" stroke="#3a414a" stroke-width=".05" fill="#3a414a"/><path d="M1521 310.5h-.54l.04-.5-.02-.5h.53z" fill="#3a414a"/><path d="M1521.04 310.52h-.6l.04-.5-.02-.54h.58zm-.53-1l.03.5-.04.46h.5v-.96z" stroke="#3a414a" stroke-width=".05" fill="#3a414a"/><path d="M1574.63 216.38h-9.27l4.64-14.26z" fill="#3a414a"/><path d="M1575.32 216.88h-10.64l5.32-16.38zm-9.27-1h7.9l-3.95-12.14z" stroke="#3a414a" stroke-width=".05" fill="#3a414a"/><use xlink:href="#p" transform="matrix(1,0,0,1,1480.3950617283951,254.7935405229069) translate(0 14.222222222222223)"/><use xlink:href="#q" transform="matrix(1,0,0,1,1480.3950617283951,254.7935405229069) translate(85.62962962962965 14.222222222222223)"/><path d="M750.5 583.12h-1v-2.95h1zm-5.48-51.47l1 .24.93.38.87.54.78.66.66.77.53.87.38.95.24 1 .08 1v20.76h-1V538.1l-.07-.88-.2-.84-.33-.8-.45-.74-.56-.65-.67-.57-.73-.45-.8-.33-.84-.2-.88-.07h-1.3v-1H744z" stroke="#1071e5" stroke-width=".05" fill="#1071e5"/><path d="M742.68 532.58h-.83l.54-.84.08-.16h.2z" fill="#1071e5"/><path d="M742.7 532.6h-.9l.57-.88.1-.17h.24zm-.2-1l-.1.15-.5.8h.76v-.95z" stroke="#1071e5" stroke-width=".05" fill="#1071e5"/><path d="M750 597.88l-4.63-14.26h9.26z" fill="#1071e5"/><path d="M750 599.5l-5.32-16.38h10.64zm-3.95-15.38l3.95 12.14 3.95-12.14z" stroke="#1071e5" stroke-width=".05" fill="#1071e5"/><use xlink:href="#r" transform="matrix(1,0,0,1,711.2592592592592,558.8333333333334) translate(0 14.222222222222223)"/><path d="M975.02 512.1l1 .23.93.4.87.52.78.66.66.8.53.86.38.94.24 1 .08 1V743.1h-1v-224.6l-.07-.87-.2-.84-.33-.78-.45-.74-.56-.65-.67-.57-.73-.45-.8-.32-.84-.2-.88-.07H832.52v-1h141.5zm-222.93.9v-1h15.38v1z" stroke="#1071e5" stroke-width=".05" fill="#1071e5"/><path d="M752.1 513h-.7l.37-.93.34-.06z" fill="#1071e5"/><path d="M752.13 513.04h-.77l.4-1 .37-.06zm-.35-.94l-.35.9h.65v-.96z" stroke="#1071e5" stroke-width=".05" fill="#1071e5"/><path d="M980 757.88l-4.63-14.26h9.26z" fill="#1071e5"/><path d="M980 759.5l-5.32-16.38h10.64zm-3.95-15.38l3.95 12.14 3.95-12.14z" stroke="#1071e5" stroke-width=".05" fill="#1071e5"/><use xlink:href="#s" transform="matrix(1,0,0,1,767.4814814814815,501.84605373764276) translate(0 14.222222222222223)"/><path d="M1535.02 488.5l1 .23.93.4.87.52.78.66.66.8.53.86.38.94.24 1 .08 1V643.1h-1v-148.2l-.07-.87-.2-.84-.33-.8-.45-.72-.56-.66-.67-.56-.73-.45-.8-.32-.84-.2-.88-.07H854.22v-1h679.8zm-776.6.9v-1h11.36v1z" stroke="#1071e5" stroke-width=".05" fill="#1071e5"/><path d="M758.43 489.4h-.6l.17-1h.43z" fill="#1071e5"/><path d="M758.45 489.44h-.65l.18-1.06h.47zm-.43-1l-.16.94h.54v-.94z" stroke="#1071e5" stroke-width=".05" fill="#1071e5"/><path d="M1540 657.88l-4.63-14.26h9.27z" fill="#1071e5"/><path d="M1540 659.5l-5.32-16.38h10.64zm-3.95-15.38l3.95 12.14 3.95-12.14z" stroke="#1071e5" stroke-width=".05" fill="#1071e5"/><use xlink:href="#t" transform="matrix(1,0,0,1,769.7777777777778,478.2436560620766) translate(0 14.222222222222223)"/><path d="M1035.02 459.58l1 .24.93.4.87.52.78.66.66.78.53.87.38.94.24.98.08 1v768.5l.07.88.2.84.33.8.45.73.56.66.67.55.73.45.8.33.84.2.88.07h107.96l.88-.07.84-.2.8-.33.73-.45.66-.56.55-.67.45-.73.33-.8.2-.84.07-.88v-17.6h1v17.64l-.08 1-.24 1-.4.93-.52.87-.66.78-.78.66-.87.53-.94.38-.98.24-1 .08h-108.04l-1-.08-1-.24-.93-.4-.87-.52-.78-.66-.66-.78-.53-.87-.38-.94-.24-.98-.08-1v-768.5l-.07-.88-.2-.84-.33-.8-.45-.73-.56-.66-.67-.55-.73-.45-.8-.33-.84-.2-.88-.07H838.52v-1h195.5zM761 460.5v-1h16.48v1z" stroke="#1071e5" stroke-width=".05" fill="#1071e5"/><path d="M761 460.5h-.5v-1h.5z" fill="#1071e5"/><path d="M761.04 460.52h-.58v-1.04h.58zm-.52-1v.96h.47v-.96z" stroke="#1071e5" stroke-width=".05" fill="#1071e5"/><path d="M1164.63 1216.38h-9.27l4.64-14.26z" fill="#1071e5"/><path d="M1165.32 1216.88h-10.64l5.32-16.38zm-9.27-1h7.9l-3.95-12.14z" stroke="#1071e5" stroke-width=".05" fill="#1071e5"/><use xlink:href="#u" transform="matrix(1,0,0,1,777.4814814814815,449.3333333333333) translate(0 14.222222222222223)"/><path d="M770.8 380.87h-33.38v-1h33.38zm672.32-85.9h-338.9l-.87.08-.84.2-.8.33-.72.45-.66.56-.56.65-.45.74-.32.78-.2.84-.07.88v73.9l-.07 1-.24.98-.4.94-.53.87-.66.76-.77.67-.87.53-.94.4-1 .23-1 .07H831.9v-1h260.3l.87-.07.84-.2.8-.33.74-.45.66-.56.56-.66.45-.74.34-.8.2-.83.07-.88v-73.9l.1-1 .23-.98.4-.94.52-.87.66-.78.8-.66.86-.53.94-.4 1-.24 1-.08h338.92z" stroke="#1071e5" stroke-width=".05" fill="#1071e5"/><path d="M737.43 380.87h-.14l-.75-1h.88z" fill="#1071e5"/><path d="M737.46 380.9h-.18l-.78-1.05h.96zm-.87-1l.7.94h.1v-.95z" stroke="#1071e5" stroke-width=".05" fill="#1071e5"/><path d="M1457.88 294.48l-14.26 4.64v-9.27z" fill="#1071e5"/><path d="M1459.5 294.48l-16.38 5.33v-10.64zm-15.38 3.95l12.14-3.95-12.14-3.94z" stroke="#1071e5" stroke-width=".05" fill="#1071e5"/><use xlink:href="#v" transform="matrix(1,0,0,1,770.8010928217622,369.7014340315677) translate(0 14.222222222222223)"/><path d="M1845.02 402.17l1 .24.93.4.87.53.78.66.66.77.53.87.38.94.24 1 .08 1v665.94l-.08 1-.24 1-.4.93-.52.87-.66.78-.78.66-.87.53-.94.38-.98.24-1 .08h-298.04l-1-.08-1-.24-.93-.4-.87-.52-.78-.66-.66-.78-.53-.87-.38-.94-.24-.98-.08-1v-17.64h1v17.6l.07.88.2.84.33.8.45.73.56.66.67.55.73.45.8.33.84.2.88.07h297.96l.88-.07.84-.2.8-.33.73-.45.66-.56.55-.67.45-.73.33-.8.2-.84.07-.88V408.6l-.07-.87-.2-.84-.33-.8-.45-.74-.56-.66-.67-.56-.73-.45-.8-.34-.84-.2-.88-.07H861.9v-1h982.12zm-1094.88.92v-1h27.96v1z" stroke="#1071e5" stroke-width=".05" fill="#1071e5"/><path d="M750.15 403.1h-.3l-.42-1h.72z" fill="#1071e5"/><path d="M750.17 403.12h-.34l-.44-1.05h.77zm-.7-1l.4.95h.25v-.95z" stroke="#1071e5" stroke-width=".05" fill="#1071e5"/><path d="M1544.63 1056.38h-9.27l4.64-14.26z" fill="#1071e5"/><path d="M1545.32 1056.88h-10.64l5.32-16.38zm-9.27-1h7.9l-3.95-12.14z" stroke="#1071e5" stroke-width=".05" fill="#1071e5"/><use xlink:href="#w" transform="matrix(1,0,0,1,778.0987654320987,391.92422165159047) translate(0 14.222222222222223)"/><path d="M600 968c0 17.67-17.9 32-40 32s-40-14.33-40-32v-96c0-17.67 17.9-32 40-32s40 14.33 40 32z" stroke="#3a414a" fill="#fff"/><use xlink:href="#h" transform="matrix(6.123233995736766e-17,1,-1,6.123233995736766e-17,595,845) translate(50.370370370370374 39.65277777777778)"/><path d="M429.5 770.5V1094a6 6 0 0 0 6 6h307.62M429.5 770.5v-.5" stroke="#3a414a" fill="none"/><path d="M757.88 1100l-14.26 4.63v-9.27z" stroke="#3a414a" fill="#3a414a"/><path d="M643.12 661.92H430.5v-1h212.62zM430.5 661.92h-.5v-1h.5z" stroke="#3a414a" stroke-width=".05" fill="#3a414a"/><path d="M657.88 661.42l-14.26 4.63v-9.27z" fill="#3a414a"/><path d="M659.5 661.42l-16.38 5.32V656.1zm-15.38 3.94l12.14-3.94-12.14-3.95z" stroke="#3a414a" stroke-width=".05" fill="#3a414a"/><path d="M430.5 720h212.62M430.5 720h-.5" stroke="#3a414a" fill="none"/><path d="M657.88 720l-14.26 4.63v-9.26z" stroke="#3a414a" fill="#3a414a"/><path d="M423.58 770h219.54M423.08 770" stroke="#3a414a" fill="none"/><path d="M657.88 770l-14.26 4.63v-9.26z" stroke="#3a414a" fill="#3a414a"/><path d="M601 893.55h42.12" stroke="#3a414a" fill="none"/><path d="M601 894.05h-.5v-1h.5z" stroke="#3a414a" stroke-width=".05" fill="#3a414a"/><path d="M657.88 893.55l-14.26 4.63v-9.26z" stroke="#3a414a" fill="#3a414a"/><path d="M472.5 925.98l.07.88.2.84.33.8.45.73.56.66.67.55.73.45.8.33.84.2.88.07h25.1v1h-25.14l-1-.08-1-.24-.93-.4-.87-.52-.78-.66-.66-.78-.53-.87-.38-.94-.24-.98-.08-1V648.44h1zm0-298.88h-1V140.5h1zM472.5 140.5h-1v-.5h1z" stroke="#008a0e" stroke-width=".05" fill="#008a0e"/><path d="M517.88 932l-14.26 4.63v-9.26z" fill="#008a0e"/><path d="M519.5 932l-16.38 5.32v-10.64zm-15.38 3.95l12.14-3.95-12.14-3.95z" stroke="#008a0e" stroke-width=".05" fill="#008a0e"/><path d="M1560 1332a12 12 0 0 1 12-12h216a12 12 0 0 1 12 12v156a12 12 0 0 1-12 12h-216a12 12 0 0 1-12-12z" stroke="#dfe3e8" stroke-width="2" fill="#fff"/><path d="M1635.45 1411.62c0 8.93-7.24 16.16-16.17 16.16-8.93 0-16.17-7.23-16.17-16.16s7.25-16.17 16.18-16.17 16.17 7.24 16.17 16.17z" stroke="#000" stroke-opacity=".25" fill="#1071e5"/><path d="M1635.45 1454.73c0 8.93-7.24 16.17-16.17 16.17-8.93 0-16.17-7.24-16.17-16.17 0-8.93 7.25-16.17 16.18-16.17s16.17 7.24 16.17 16.17z" stroke="#000" stroke-opacity=".25" fill="#54c45e"/><use xlink:href="#x" transform="matrix(1,0,0,1,1603.11377245509,1352.3353293413174) translate(0 14.4)"/><use xlink:href="#y" transform="matrix(1,0,0,1,1603.11377245509,1352.3353293413174) translate(0 38.160000000000004)"/><use xlink:href="#z" transform="matrix(1,0,0,1,1603.11377245509,1352.3353293413174) translate(37.95 38.160000000000004)"/><use xlink:href="#A" transform="matrix(1,0,0,1,1651.6167664670659,1395.4491017964071) translate(0 19.3)"/><use xlink:href="#B" transform="matrix(1,0,0,1,1651.6167664670659,1438.562874251497) translate(0 19.3)"/><use xlink:href="#C" transform="matrix(1,0,0,1,1651.6167664670659,1438.562874251497) translate(45.849999999999994 19.3)"/><path d="M490.5 901.08l.07.88.2.83.33.8.45.73.56.65.67.56.73.45.8.32.84.2.88.08h7.1v1h-7.14l-1-.08-1-.24-.93-.4-.87-.52-.78-.67-.66-.78-.53-.87-.38-.95-.24-1-.08-1V648.45h1zM711.26 570.5H496.02l-.88.07-.84.2-.8.33-.73.45-.66.56-.55.67-.45.73-.33.8-.2.84-.07.88v51.08h-1v-51.12l.08-1 .24-1 .4-.93.52-.87.66-.78.78-.66.87-.53.94-.38.98-.24 1-.08h215.28zm658.28-376.68l-.27.03-.23.05-.22.1-.2.1-.18.17-.15.17-.13.2-.1.22-.05.23-.02.25v368.67l-.08 1-.24 1-.4.93-.52.87-.66.78-.78.66-.87.53-.94.38-.98.24-1 .08H788.74v-1h572.74l.88-.07.84-.2.8-.33.73-.45.66-.56.55-.67.45-.73.33-.8.2-.84.07-.88V195.3l.03-.37.1-.38.14-.36.2-.34.26-.3.3-.26.33-.2.37-.15.38-.1.36-.02z" stroke="#008a0e" stroke-width=".05" fill="#008a0e"/><path d="M1370 193.83h-.5v-1h.5z" stroke="#008a0e" stroke-width=".05" fill="#008a0e"/><path d="M517.88 907.1l-14.26 4.63v-9.27z" fill="#008a0e"/><path d="M519.5 907.1l-16.38 5.32v-10.65zm-15.38 3.94l12.14-3.94-12.14-3.95zM1523.12 112.06h-113.6l-.9.07-.83.2-.8.33-.74.45-.65.58-.56.65-.45.74-.34.8-.2.83-.07.88v646.27h-1v-646.3l.07-1 .24-1 .4-.94.53-.86.66-.77.77-.67.87-.53.94-.4 1-.23 1-.08h113.64z" stroke="#008a0e" stroke-width=".05" fill="#008a0e"/><path d="M1404 764.35h-1v-.52h1z" stroke="#008a0e" stroke-width=".05" fill="#008a0e"/><path d="M1537.88 111.56l-14.26 4.64v-9.27z" fill="#008a0e"/><path d="M1539.5 111.56l-16.38 5.33v-10.66zm-15.38 3.95l12.14-3.94-12.14-3.94z" stroke="#008a0e" stroke-width=".05" fill="#008a0e"/><path d="M1523.12 145.35h-147.1l-.88.07-.84.2-.8.33-.73.45-.66.56-.55.66-.45.73-.33.8-.2.84-.07.87v43.15l-.08 1-.24 1-.4.93-.52.87-.66.78-.78.66-.87.53-.94.38-.98.24-1 .08H1201v-1h162.98l.88-.07.84-.2.8-.33.73-.45.66-.56.55-.67.45-.73.33-.8.2-.84.07-.88v-43.15l.08-1 .24-1 .4-.93.52-.87.66-.78.78-.66.87-.54.94-.4.98-.23 1-.08h147.14z" stroke="#3a414a" stroke-width=".05" fill="#3a414a"/><path d="M1201 200.5h-.5v-1h.5z" fill="#3a414a"/><path d="M1201.04 200.53h-.57v-1.06h.57zm-.5-1v.94h.45v-.94z" stroke="#3a414a" stroke-width=".05" fill="#3a414a"/><path d="M1537.88 144.85l-14.26 4.63v-9.27z" fill="#3a414a"/><path d="M1539.5 144.85l-16.38 5.32v-10.64zm-15.38 3.95l12.14-3.95-12.14-3.95z" stroke="#3a414a" stroke-width=".05" fill="#3a414a"/><path d="M641.1 1100.5V1204a6 6 0 0 0 6 6H1064a6 6 0 0 0 6-6v-78a6 6 0 0 1 6-6h7.12M641.1 1100.5v-.5" stroke="#008a0e" fill="none"/><path d="M1097.88 1120l-14.26 4.63v-9.27z" stroke="#008a0e" fill="#008a0e"/><path d="M1318.7 764.85V1164a6 6 0 0 0 6 6H1644a6 6 0 0 0 6-6V906.52a6 6 0 0 1 6-6h7.12M1318.7 764.86v-.5" stroke="#3a414a" fill="none"/><path d="M1677.88 900.52l-14.26 4.64v-9.27z" stroke="#3a414a" fill="#3a414a"/><path d="M1715.02 439.58l1 .24.93.4.87.52.78.66.66.78.53.87.38.94.24.98.08 1v317.14h-1v-317.1l-.07-.88-.2-.84-.33-.8-.45-.73-.56-.66-.67-.55-.73-.45-.8-.33-.84-.2-.88-.07H862.3v-1h851.72zm-955.22.92v-1h11.9v1z" stroke="#1071e5" stroke-width=".05" fill="#1071e5"/><path d="M759.82 440.5h-.47l-.05-.5-.07-.5h.6z" fill="#1071e5"/><path d="M759.84 440.52h-.5l-.06-.5-.08-.54h.64zm-.58-1l.07.48.04.48h.42v-.96z" stroke="#1071e5" stroke-width=".05" fill="#1071e5"/><path d="M1720 777.88l-4.63-14.26h9.27z" fill="#1071e5"/><path d="M1720 779.5l-5.32-16.38h10.64zm-3.95-15.38l3.95 12.14 3.95-12.14z" stroke="#1071e5" stroke-width=".05" fill="#1071e5"/><use xlink:href="#D" transform="matrix(1,0,0,1,771.6913580246913,429.3333333333333) translate(0 14.222222222222223)"/><path d="M560.5 823.12h-1V648.44h1zm100.54-285.04h-95.02l-.88.07-.84.2-.8.33-.73.45-.66.56-.55.65-.45.74-.33.78-.2.84-.07.88v83.5h-1v-83.54l.08-1 .24-1 .4-.93.52-.87.66-.77.78-.68.87-.53.94-.4.98-.24 1-.08h95.06z" stroke="#1071e5" stroke-width=".05" fill="#1071e5"/><path d="M661.92 538.08h-.9v-1h.14z" fill="#1071e5"/><path d="M661.97 538.1H661v-1.04h.17zm-.92-1v.96h.82l-.72-.95z" stroke="#1071e5" stroke-width=".05" fill="#1071e5"/><path d="M560 837.88l-4.63-14.26h9.26z" fill="#1071e5"/><path d="M560 839.5l-5.32-16.38h10.64zm-3.95-15.38l3.95 12.14 3.95-12.14z" stroke="#1071e5" stroke-width=".05" fill="#1071e5"/><use xlink:href="#E" transform="matrix(1,0,0,1,456.8395061728395,627.1044403177896) translate(0 14.222222222222223)"/><use xlink:href="#F" transform="matrix(1,0,0,1,456.8395061728395,627.1044403177896) translate(104.93827160493828 14.222222222222223)"/><path d="M120.5 663.12h-1V471.67h1zm536-273.3H126.02l-.88.06-.84.2-.8.34-.73.45-.66.56-.55.65-.45.74-.33.8-.2.84-.07.88v55h-1V395.3l.08-1 .24-1 .4-.94.52-.87.66-.78.78-.66.87-.54.94-.4.98-.23 1-.08H656.5z" stroke="#1071e5" stroke-width=".05" fill="#1071e5"/><path d="M656.7 389.82h-.2v-1h.8z" fill="#1071e5"/><path d="M656.73 389.84h-.27v-1.05h.87zm-.22-1v.95h.2l.55-.96z" stroke="#1071e5" stroke-width=".05" fill="#1071e5"/><path d="M120 677.88l-4.64-14.26h9.28z" fill="#1071e5"/><path d="M120 679.5l-5.32-16.38h10.64zm-3.95-15.38l3.95 12.14 3.95-12.14z" stroke="#1071e5" stroke-width=".05" fill="#1071e5"/><use xlink:href="#G" transform="matrix(1,0,0,1,77.65432098765432,450.3333333333333) translate(0 14.222222222222223)"/><path d="M1375 640c0 22.1-17.9 40-40 40s-40-17.9-40-40 17.9-40 40-40 40 17.9 40 40z" stroke="#3a414a" fill="#fff"/><use xlink:href="#H" transform="matrix(1,0,0,1,1300,605) translate(19.598765432098766 39.65277777777778)"/><path d="M1211 707.5h118a6 6 0 0 0 6-6v-4.62" stroke="#3a414a" fill="none"/><path d="M1211 708h-.5v-1h.5z" stroke="#3a414a" stroke-width=".05" fill="#3a414a"/><path d="M1335 682.12l4.63 14.26h-9.27z" stroke="#3a414a" fill="#3a414a"/><path d="M1260 500h100v-28h-100zM1260 388h100v-28h-100z" fill="none"/><path d="M1285 459.4V500m50-40.6V500zm-25-61.04V360zm-40 67.9l4.9-2.8s14-7.98 35.1-7.98 35.1 7.98 35.1 7.98l4.9 2.8V442.18c0-3.36 0-10.64-4.8-19.04-4.9-8.26-14.7-17.5-33.8-24.78h-2.8c-38.2 14.42-38.6 37.24-38.6 43.82V466.26z" stroke="#3a414a" fill="#fff"/><path d="M1310 359.5v-29a6 6 0 0 1 6-6h143" stroke="#3a414a" fill="none"/><path d="M1309.5 360v-.5h1v.5zM1459.5 325h-.5v-1h.5z" stroke="#3a414a" stroke-width=".05" fill="#3a414a"/><path d="M1335 599v-82.62" stroke="#3a414a" fill="none"/><path d="M1335.5 599.53l-.5-.03-.5.02V599h1z" stroke="#3a414a" stroke-width=".05" fill="#3a414a"/><path d="M1335 501.62l4.63 14.26h-9.27z" stroke="#3a414a" fill="#3a414a"/><path d="M1095.02 421.7l1 .24.93.4.87.52.78.66.66.78.53.87.38.94.24 1 .08 1v105.88l.07.88.2.84.33.8.45.73.56.66.67.55.73.45.8.33.84.2.88.07h172.96l.88-.07.84-.2.8-.33.73-.45.66-.56.55-.67.45-.73.33-.8.2-.84.07-.88v-17.6h1v17.64l-.08 1-.24 1-.4.93-.52.87-.66.78-.78.66-.87.53-.94.38-.98.24-1 .08h-173.04l-1-.08-1-.24-.93-.4-.87-.52-.78-.66-.66-.78-.53-.87-.38-.94-.24-.98-.08-1V428.14l-.07-.88-.2-.84-.33-.8-.45-.73-.56-.67-.67-.56-.73-.45-.8-.33-.84-.2-.88-.08H864.44v-1h229.58zm-338.5.92v-1h12.86v1z" stroke="#1071e5" stroke-width=".05" fill="#1071e5"/><path d="M756.53 422.62h-.4l-.24-1h.63z" fill="#1071e5"/><path d="M756.55 422.65h-.43l-.26-1.05h.7zm-.63-1l.24.95h.35v-.95z" stroke="#1071e5" stroke-width=".05" fill="#1071e5"/><path d="M1289.63 515.88h-9.27l4.64-14.26z" fill="#1071e5"/><path d="M1290.32 516.38h-10.64L1285 500zm-9.27-1h7.9l-3.95-12.14z" stroke="#1071e5" stroke-width=".05" fill="#1071e5"/><use xlink:href="#I" transform="matrix(1,0,0,1,769.3810491290961,411.4543404176504) translate(0 14.222222222222223)"/><path d="M1583.18 385.62l-.08 1-.24 1-.4.93-.52.87-.66.78-.78.66-.87.53-.94.38-1 .24-1 .08H861.9v-.18h-83.8v.18h-33.28v-1h831.84l.88-.07.84-.2.8-.33.73-.45.67-.56.56-.67.45-.73.33-.8.2-.84.08-.88V276.13h1zm0-130.83h-1v-40.5h1z" stroke="#1071e5" stroke-width=".05" fill="#1071e5"/><path d="M744.83 392.1h-.24l-.55-1h.78z" fill="#1071e5"/><path d="M744.86 392.12h-.3l-.55-1.05h.86zm-.77-1l.5.95h.2v-.95z" stroke="#1071e5" stroke-width=".05" fill="#1071e5"/><path d="M1587.32 213.8h-9.27l4.63-14.25z" fill="#1071e5"/><path d="M1588 214.3h-10.64l5.32-16.37zm-9.27-1h7.9l-3.95-12.13z" stroke="#1071e5" stroke-width=".05" fill="#1071e5"/><path d="M374.63 192.68A9.7 9.7 0 0 0 380 184V96a9.7 9.7 0 0 0-5.37-8.68l-89.26-44.64A3.7 3.7 0 0 0 280 46v69.25a10.6 10.6 0 0 0 5.14 9.1l20.97 12.56a4.17 4.17 0 0 1 .46 6.85l-21.88 17.5A12.48 12.48 0 0 0 280 171v63a3.7 3.7 0 0 0 5.37 3.32z" stroke="#3a414a" fill="#fff"/><use xlink:href="#J" transform="matrix(1,0,0,1,280,40) translate(18.4783950617284 103.11111111111111)"/><use xlink:href="#K" transform="matrix(1,0,0,1,280,40) translate(40.08333333333333 103.11111111111111)"/><path d="M1194.63 242.68A9.7 9.7 0 0 0 1200 234v-68a9.7 9.7 0 0 0-5.37-8.68l-69.26-34.64A3.7 3.7 0 0 0 1120 126v53a10.6 10.6 0 0 0 5.14 9.1l14.7 8.8a4.17 4.17 0 0 1 .48 6.85l-15.63 12.5a12.48 12.48 0 0 0-4.7 9.75v48a3.7 3.7 0 0 0 5.37 3.32z" stroke="#3a414a" fill="#fff"/><g><use xlink:href="#J" transform="matrix(1,0,0,1,1120,120) translate(8.4783950617284 83.11111111111111)"/><use xlink:href="#K" transform="matrix(1,0,0,1,1120,120) translate(30.083333333333332 83.11111111111111)"/></g><path d="M1204.63 792.68A9.7 9.7 0 0 0 1210 784v-88a9.7 9.7 0 0 0-5.37-8.68l-89.26-44.64A3.7 3.7 0 0 0 1110 646v69.25a10.6 10.6 0 0 0 5.14 9.1l20.96 12.56a4.17 4.17 0 0 1 .47 6.85l-21.88 17.5a12.48 12.48 0 0 0-4.7 9.75v63a3.7 3.7 0 0 0 5.37 3.32z" stroke="#3a414a" fill="#fff"/><g><use xlink:href="#J" transform="matrix(1,0,0,1,1110,640) translate(24.095679012345684 103.11111111111111)"/><use xlink:href="#L" transform="matrix(1,0,0,1,1110,640) translate(45.70061728395062 103.11111111111111)"/></g><path d="M1523.18 174.38h-79.93v-1h79.93z" stroke="#3a414a" stroke-width=".05" fill="#3a414a"/><path stroke="#3a414a" stroke-width=".05" fill="#3a414a"/><path d="M1537.95 173.88l-14.27 4.64v-9.27z" fill="#3a414a"/><path d="M1539.57 173.88l-16.4 5.33v-10.64zm-15.4 3.95l12.16-3.95-12.15-3.95z" stroke="#3a414a" stroke-width=".05" fill="#3a414a"/><g><use xlink:href="#M" transform="matrix(1,0,0,1,1423.499693861838,163.21461888811112) translate(0 14.222222222222223)"/></g><path d="M472 916.73V954a6 6 0 0 0 6 6h25.12M472 916.74v-.5" stroke="#008a0e" fill="none"/><path d="M517.88 960l-14.26 4.63v-9.26z" stroke="#008a0e" fill="#008a0e"/><defs><path fill="#3a414a" d="M233-177c-1 41-23 64-60 70L243 0h-38l-65-103H63V0H30v-248c88 3 205-21 203 71zM63-129c60-2 137 13 137-47 0-61-80-42-137-45v92" id="N"/><path fill="#3a414a" d="M100-194c63 0 86 42 84 106H49c0 40 14 67 53 68 26 1 43-12 49-29l28 8c-11 28-37 45-77 45C44 4 14-33 15-96c1-61 26-98 85-98zm52 81c6-60-76-77-97-28-3 7-6 17-6 28h103" id="O"/><path fill="#3a414a" d="M177-190C167-65 218 103 67 71c-23-6-38-20-44-43l32-5c15 47 100 32 89-28v-30C133-14 115 1 83 1 29 1 15-40 15-95c0-56 16-97 71-98 29-1 48 16 59 35 1-10 0-23 2-32h30zM94-22c36 0 50-32 50-73 0-42-14-75-50-75-39 0-46 34-46 75s6 73 46 73" id="P"/><path fill="#3a414a" d="M24-231v-30h32v30H24zM24 0v-190h32V0H24" id="Q"/><path fill="#3a414a" d="M135-143c-3-34-86-38-87 0 15 53 115 12 119 90S17 21 10-45l28-5c4 36 97 45 98 0-10-56-113-15-118-90-4-57 82-63 122-42 12 7 21 19 24 35" id="R"/><path fill="#3a414a" d="M59-47c-2 24 18 29 38 22v24C64 9 27 4 27-40v-127H5v-23h24l9-43h21v43h35v23H59v120" id="S"/><path fill="#3a414a" d="M114-163C36-179 61-72 57 0H25l-1-190h30c1 12-1 29 2 39 6-27 23-49 58-41v29" id="T"/><g id="a"><use transform="matrix(0.06172839506172839,0,0,0.06172839506172839,0,0)" xlink:href="#N"/><use transform="matrix(0.06172839506172839,0,0,0.06172839506172839,15.987654320987653,0)" xlink:href="#O"/><use transform="matrix(0.06172839506172839,0,0,0.06172839506172839,28.333333333333332,0)" xlink:href="#P"/><use transform="matrix(0.06172839506172839,0,0,0.06172839506172839,40.67901234567901,0)" xlink:href="#Q"/><use transform="matrix(0.06172839506172839,0,0,0.06172839506172839,45.55555555555556,0)" xlink:href="#R"/><use transform="matrix(0.06172839506172839,0,0,0.06172839506172839,56.66666666666667,0)" xlink:href="#S"/><use transform="matrix(0.06172839506172839,0,0,0.06172839506172839,62.83950617283951,0)" xlink:href="#O"/><use transform="matrix(0.06172839506172839,0,0,0.06172839506172839,75.18518518518519,0)" xlink:href="#T"/></g><path fill="#3a414a" d="M63-220v92h138v28H63V0H30v-248h175v28H63" id="U"/><path fill="#3a414a" d="M24 0v-261h32V0H24" id="V"/><g id="b"><use transform="matrix(0.06172839506172839,0,0,0.06172839506172839,0,0)" xlink:href="#U"/><use transform="matrix(0.06172839506172839,0,0,0.06172839506172839,13.518518518518517,0)" xlink:href="#Q"/><use transform="matrix(0.06172839506172839,0,0,0.06172839506172839,18.39506172839506,0)" xlink:href="#V"/><use transform="matrix(0.06172839506172839,0,0,0.06172839506172839,23.2716049382716,0)" xlink:href="#O"/></g><path fill="#3a414a" d="M30-248c87 1 191-15 191 75 0 78-77 80-158 76V0H30v-248zm33 125c57 0 124 11 124-50 0-59-68-47-124-48v98" id="W"/><path fill="#3a414a" d="M212-179c-10-28-35-45-73-45-59 0-87 40-87 99 0 60 29 101 89 101 43 0 62-24 78-52l27 14C228-24 195 4 139 4 59 4 22-46 18-125c-6-104 99-153 187-111 19 9 31 26 39 46" id="X"/><g id="c"><use transform="matrix(0.06172839506172839,0,0,0.06172839506172839,0,0)" xlink:href="#W"/><use transform="matrix(0.06172839506172839,0,0,0.06172839506172839,14.814814814814813,0)" xlink:href="#X"/></g><path fill="#3a414a" d="M33 0v-248h34V0H33" id="Y"/><path fill="#3a414a" d="M117-194c89-4 53 116 60 194h-32v-121c0-31-8-49-39-48C34-167 62-67 57 0H25l-1-190h30c1 10-1 24 2 32 11-22 29-35 61-36" id="Z"/><path fill="#3a414a" d="M84 4C-5 8 30-112 23-190h32v120c0 31 7 50 39 49 72-2 45-101 50-169h31l1 190h-30c-1-10 1-25-2-33-11 22-28 36-60 37" id="aa"/><path fill="#3a414a" d="M96-169c-40 0-48 33-48 73s9 75 48 75c24 0 41-14 43-38l32 2c-6 37-31 61-74 61-59 0-76-41-82-99-10-93 101-131 147-64 4 7 5 14 7 22l-32 3c-4-21-16-35-41-35" id="ab"/><path fill="#3a414a" d="M100-194c62-1 85 37 85 99 1 63-27 99-86 99S16-35 15-95c0-66 28-99 85-99zM99-20c44 1 53-31 53-75 0-43-8-75-51-75s-53 32-53 75 10 74 51 75" id="ac"/><g id="d"><use transform="matrix(0.06172839506172839,0,0,0.06172839506172839,0,0)" xlink:href="#Y"/><use transform="matrix(0.06172839506172839,0,0,0.06172839506172839,6.172839506172839,0)" xlink:href="#Z"/><use transform="matrix(0.06172839506172839,0,0,0.06172839506172839,18.51851851851852,0)" xlink:href="#R"/><use transform="matrix(0.06172839506172839,0,0,0.06172839506172839,29.62962962962963,0)" xlink:href="#S"/><use transform="matrix(0.06172839506172839,0,0,0.06172839506172839,35.80246913580247,0)" xlink:href="#T"/><use transform="matrix(0.06172839506172839,0,0,0.06172839506172839,43.148148148148145,0)" xlink:href="#aa"/><use transform="matrix(0.06172839506172839,0,0,0.06172839506172839,55.49382716049382,0)" xlink:href="#ab"/><use transform="matrix(0.06172839506172839,0,0,0.06172839506172839,66.60493827160494,0)" xlink:href="#S"/><use transform="matrix(0.06172839506172839,0,0,0.06172839506172839,72.77777777777777,0)" xlink:href="#Q"/><use transform="matrix(0.06172839506172839,0,0,0.06172839506172839,77.65432098765432,0)" xlink:href="#ac"/><use transform="matrix(0.06172839506172839,0,0,0.06172839506172839,90,0)" xlink:href="#Z"/></g><path fill="#3a414a" d="M240 0l2-218c-23 76-54 145-80 218h-23L58-218 59 0H30v-248h44l77 211c21-75 51-140 76-211h43V0h-30" id="ad"/><path fill="#3a414a" d="M210-169c-67 3-38 105-44 169h-31v-121c0-29-5-50-35-48C34-165 62-65 56 0H25l-1-190h30c1 10-1 24 2 32 10-44 99-50 107 0 11-21 27-35 58-36 85-2 47 119 55 194h-31v-121c0-29-5-49-35-48" id="ae"/><path fill="#3a414a" d="M179-190L93 31C79 59 56 82 12 73V49c39 6 53-20 64-50L1-190h34L92-34l54-156h33" id="af"/><g id="e"><use transform="matrix(0.06172839506172839,0,0,0.06172839506172839,0,0)" xlink:href="#ad"/><use transform="matrix(0.06172839506172839,0,0,0.06172839506172839,18.456790123456788,0)" xlink:href="#O"/><use transform="matrix(0.06172839506172839,0,0,0.06172839506172839,30.80246913580247,0)" xlink:href="#ae"/><use transform="matrix(0.06172839506172839,0,0,0.06172839506172839,49.25925925925925,0)" xlink:href="#ac"/><use transform="matrix(0.06172839506172839,0,0,0.06172839506172839,61.60493827160493,0)" xlink:href="#T"/><use transform="matrix(0.06172839506172839,0,0,0.06172839506172839,68.9506172839506,0)" xlink:href="#af"/></g><g id="f"><use transform="matrix(0.06172839506172839,0,0,0.06172839506172839,0,0)" xlink:href="#Y"/><use transform="matrix(0.06172839506172839,0,0,0.06172839506172839,6.172839506172839,0)" xlink:href="#ae"/><use transform="matrix(0.06172839506172839,0,0,0.06172839506172839,24.629629629629626,0)" xlink:href="#ae"/></g><path fill="#3a414a" d="M143 4C61 4 22-44 18-125c-5-107 100-154 193-111 17 8 29 25 37 43l-32 9c-13-25-37-40-76-40-61 0-88 39-88 99 0 61 29 100 91 101 35 0 62-11 79-27v-45h-74v-28h105v86C228-13 192 4 143 4" id="ag"/><g id="g"><use transform="matrix(0.06172839506172839,0,0,0.06172839506172839,0,0)" xlink:href="#ag"/><use transform="matrix(0.06172839506172839,0,0,0.06172839506172839,17.28395061728395,0)" xlink:href="#O"/><use transform="matrix(0.06172839506172839,0,0,0.06172839506172839,29.629629629629626,0)" xlink:href="#Z"/></g><path fill="#3a414a" d="M232-93c-1 65-40 97-104 97C67 4 28-28 28-90v-158h33c8 89-33 224 67 224 102 0 64-133 71-224h33v155" id="ah"/><path fill="#3a414a" d="M195 0l-74-108L45 0H8l94-129-87-119h37l69 98 67-98h37l-84 118L233 0h-38" id="ai"/><g id="h"><use transform="matrix(0.06172839506172839,0,0,0.06172839506172839,0,0)" xlink:href="#ad"/><use transform="matrix(0.06172839506172839,0,0,0.06172839506172839,18.456790123456788,0)" xlink:href="#ah"/><use transform="matrix(0.06172839506172839,0,0,0.06172839506172839,34.44444444444444,0)" xlink:href="#ai"/></g><path fill="#3a414a" d="M30-248c118-7 216 8 213 122C240-48 200 0 122 0H30v-248zM63-27c89 8 146-16 146-99s-60-101-146-95v194" id="aj"/><path fill="#3a414a" d="M141-36C126-15 110 5 73 4 37 3 15-17 15-53c-1-64 63-63 125-63 3-35-9-54-41-54-24 1-41 7-42 31l-33-3c5-37 33-52 76-52 45 0 72 20 72 64v82c-1 20 7 32 28 27v20c-31 9-61-2-59-35zM48-53c0 20 12 33 32 33 41-3 63-29 60-74-43 2-92-5-92 41" id="ak"/><g id="i"><use transform="matrix(0.06172839506172839,0,0,0.06172839506172839,0,0)" xlink:href="#aj"/><use transform="matrix(0.06172839506172839,0,0,0.06172839506172839,15.987654320987653,0)" xlink:href="#ak"/><use transform="matrix(0.06172839506172839,0,0,0.06172839506172839,28.333333333333332,0)" xlink:href="#S"/><use transform="matrix(0.06172839506172839,0,0,0.06172839506172839,34.50617283950617,0)" xlink:href="#ak"/></g><path fill="#3a414a" d="M205 0l-28-72H64L36 0H1l101-248h38L239 0h-34zm-38-99l-47-123c-12 45-31 82-46 123h93" id="al"/><path fill="#3a414a" d="M30 0v-248h33v221h125V0H30" id="am"/><g id="j"><use transform="matrix(0.06172839506172839,0,0,0.06172839506172839,0,0)" xlink:href="#al"/><use transform="matrix(0.06172839506172839,0,0,0.06172839506172839,14.814814814814813,0)" xlink:href="#am"/><use transform="matrix(0.06172839506172839,0,0,0.06172839506172839,27.160493827160494,0)" xlink:href="#ah"/><use transform="matrix(0.06172839506172839,0,0,0.06172839506172839,43.148148148148145,0)" xlink:href="#X"/><use transform="matrix(0.06172839506172839,0,0,0.06172839506172839,59.1358024691358,0)" xlink:href="#ac"/><use transform="matrix(0.06172839506172839,0,0,0.06172839506172839,71.48148148148148,0)" xlink:href="#Z"/><use transform="matrix(0.06172839506172839,0,0,0.06172839506172839,83.82716049382717,0)" xlink:href="#S"/><use transform="matrix(0.06172839506172839,0,0,0.06172839506172839,90,0)" xlink:href="#T"/><use transform="matrix(0.06172839506172839,0,0,0.06172839506172839,97.34567901234568,0)" xlink:href="#ac"/><use transform="matrix(0.06172839506172839,0,0,0.06172839506172839,109.69135802469137,0)" xlink:href="#V"/></g><g id="k"><use transform="matrix(0.06172839506172839,0,0,0.06172839506172839,0,0)" xlink:href="#X"/><use transform="matrix(0.06172839506172839,0,0,0.06172839506172839,15.987654320987653,0)" xlink:href="#ac"/><use transform="matrix(0.06172839506172839,0,0,0.06172839506172839,28.333333333333332,0)" xlink:href="#Z"/><use transform="matrix(0.06172839506172839,0,0,0.06172839506172839,40.67901234567901,0)" xlink:href="#S"/><use transform="matrix(0.06172839506172839,0,0,0.06172839506172839,46.851851851851855,0)" xlink:href="#T"/><use transform="matrix(0.06172839506172839,0,0,0.06172839506172839,54.19753086419753,0)" xlink:href="#ac"/><use transform="matrix(0.06172839506172839,0,0,0.06172839506172839,66.54320987654322,0)" xlink:href="#V"/></g><path fill="#3a414a" d="M185-189c-5-48-123-54-124 2 14 75 158 14 163 119 3 78-121 87-175 55-17-10-28-26-33-46l33-7c5 56 141 63 141-1 0-78-155-14-162-118-5-82 145-84 179-34 5 7 8 16 11 25" id="an"/><path fill="#3a414a" d="M106-169C34-169 62-67 57 0H25v-261h32l-1 103c12-21 28-36 61-36 89 0 53 116 60 194h-32v-121c2-32-8-49-39-48" id="ao"/><path fill="#3a414a" d="M101-234c-31-9-42 10-38 44h38v23H63V0H32v-167H5v-23h27c-7-52 17-82 69-68v24" id="ap"/><g id="l"><use transform="matrix(0.06172839506172839,0,0,0.06172839506172839,0,0)" xlink:href="#an"/><use transform="matrix(0.06172839506172839,0,0,0.06172839506172839,14.814814814814813,0)" xlink:href="#ao"/><use transform="matrix(0.06172839506172839,0,0,0.06172839506172839,27.160493827160494,0)" xlink:href="#Q"/><use transform="matrix(0.06172839506172839,0,0,0.06172839506172839,32.03703703703704,0)" xlink:href="#ap"/><use transform="matrix(0.06172839506172839,0,0,0.06172839506172839,38.20987654320988,0)" xlink:href="#S"/></g><path fill="#3a414a" d="M27 0v-27h64v-190l-56 39v-29l58-41h29v221h61V0H27" id="aq"/><use transform="matrix(0.06172839506172839,0,0,0.06172839506172839,0,0)" xlink:href="#aq" id="m"/><g id="n"><use transform="matrix(0.06172839506172839,0,0,0.06172839506172839,0,0)" xlink:href="#V"/><use transform="matrix(0.06172839506172839,0,0,0.06172839506172839,4.876543209876543,0)" xlink:href="#O"/><use transform="matrix(0.06172839506172839,0,0,0.06172839506172839,17.22222222222222,0)" xlink:href="#ap"/><use transform="matrix(0.06172839506172839,0,0,0.06172839506172839,23.39506172839506,0)" xlink:href="#S"/></g><path fill="#3a414a" d="M155-56V0h-30v-56H8v-25l114-167h33v167h35v25h-35zm-30-156c-27 46-58 90-88 131h88v-131" id="ar"/><use transform="matrix(0.06172839506172839,0,0,0.06172839506172839,0,0)" xlink:href="#ar" id="o"/><path fill="#333" d="M199 0l-22-63H83L61 0H9l90-248h61L250 0h-51zm-33-102l-36-108c-10 38-24 72-36 108h72" id="as"/><path fill="#333" d="M175 0L67-191c6 58 2 128 3 191H24v-248h59L193-55c-6-58-2-129-3-193h46V0h-61" id="at"/><path fill="#333" d="M24-248c120-7 223 5 221 122C244-46 201 0 124 0H24v-248zM76-40c74 7 117-18 117-86 0-67-45-88-117-82v168" id="au"/><path fill="#333" d="M-4 44V30h207v14H-4" id="av"/><path fill="#333" d="M110-194c64 0 96 36 96 99 0 64-35 99-97 99-61 0-95-36-95-99 0-62 34-99 96-99zm-1 164c35 0 45-28 45-65 0-40-10-65-43-65-34 0-45 26-45 65 0 36 10 65 43 65" id="aw"/><path fill="#333" d="M85 4C-2 5 27-109 22-190h50c7 57-23 150 33 157 60-5 35-97 40-157h50l1 190h-47c-2-12 1-28-3-38-12 25-28 42-61 42" id="ax"/><path fill="#333" d="M115-3C79 11 28 4 28-45v-112H4v-33h27l15-45h31v45h36v33H77v99c-1 23 16 31 38 25v30" id="ay"/><path fill="#333" d="M76-54c-1 42 2 86-19 110H24C36 42 46 24 48 0H25v-54h51" id="az"/><g id="p"><use transform="matrix(0.04938271604938272,0,0,0.04938271604938272,0,0)" xlink:href="#as"/><use transform="matrix(0.04938271604938272,0,0,0.04938271604938272,12.790123456790125,0)" xlink:href="#at"/><use transform="matrix(0.04938271604938272,0,0,0.04938271604938272,25.58024691358025,0)" xlink:href="#au"/><use transform="matrix(0.04938271604938272,0,0,0.04938271604938272,38.370370370370374,0)" xlink:href="#av"/><use transform="matrix(0.04938271604938272,0,0,0.04938271604938272,48.24691358024692,0)" xlink:href="#aw"/><use transform="matrix(0.04938271604938272,0,0,0.04938271604938272,59.061728395061735,0)" xlink:href="#ax"/><use transform="matrix(0.04938271604938272,0,0,0.04938271604938272,69.87654320987654,0)" xlink:href="#ay"/><use transform="matrix(0.04938271604938272,0,0,0.04938271604938272,75.75308641975309,0)" xlink:href="#az"/></g><path fill="#333" d="M24 0v-248h52v208h133V0H24" id="aA"/><path fill="#333" d="M238-95c0 69-44 99-111 99C63 4 22-25 22-93v-155h51v151c-1 38 19 59 55 60 90 1 49-130 58-211h52v153" id="aB"/><path fill="#333" d="M176-78C186 10 51 31 16-35c-5-9-9-19-11-32l52-8c4 21 12 37 35 38 23 0 32-16 32-40v-130H75v-41h101v170" id="aC"/><path fill="#333" d="M220-157c-53 9-28 100-34 157h-49v-107c1-27-5-49-29-50C55-147 81-57 75 0H25l-1-190h47c2 12-1 28 3 38 10-53 101-56 108 0 13-22 24-43 59-42 82 1 51 116 57 194h-49v-107c-1-25-5-48-29-50" id="aD"/><path fill="#333" d="M135-194c53 0 70 44 70 98 0 56-19 98-73 100-31 1-45-17-59-34 3 33 2 69 2 105H25l-1-265h48c2 10 0 23 3 31 11-24 29-35 60-35zM114-30c33 0 39-31 40-66 0-38-9-64-40-64-56 0-55 130 0 130" id="aE"/><g id="q"><use transform="matrix(0.04938271604938272,0,0,0.04938271604938272,0,0)" xlink:href="#as"/><use transform="matrix(0.04938271604938272,0,0,0.04938271604938272,12.790123456790125,0)" xlink:href="#aA"/><use transform="matrix(0.04938271604938272,0,0,0.04938271604938272,23.60493827160494,0)" xlink:href="#aB"/><use transform="matrix(0.04938271604938272,0,0,0.04938271604938272,36.39506172839506,0)" xlink:href="#av"/><use transform="matrix(0.04938271604938272,0,0,0.04938271604938272,46.27160493827161,0)" xlink:href="#aC"/><use transform="matrix(0.04938271604938272,0,0,0.04938271604938272,56.14814814814815,0)" xlink:href="#ax"/><use transform="matrix(0.04938271604938272,0,0,0.04938271604938272,66.96296296296296,0)" xlink:href="#aD"/><use transform="matrix(0.04938271604938272,0,0,0.04938271604938272,82.76543209876543,0)" xlink:href="#aE"/></g><path fill="#333" d="M240-174c0 40-23 61-54 70L253 0h-59l-57-94H76V0H24v-248c93 4 217-23 216 74zM76-134c48-2 112 12 112-38 0-48-66-32-112-35v73" id="aF"/><path fill="#333" d="M185-48c-13 30-37 53-82 52C43 2 14-33 14-96s30-98 90-98c62 0 83 45 84 108H66c0 31 8 55 39 56 18 0 30-7 34-22zm-45-69c5-46-57-63-70-21-2 6-4 13-4 21h74" id="aG"/><path fill="#333" d="M195-6C206 82 75 100 31 46c-4-6-6-13-8-21l49-6c3 16 16 24 34 25 40 0 42-37 40-79-11 22-30 35-61 35-53 0-70-43-70-97 0-56 18-96 73-97 30 0 46 14 59 34l2-30h47zm-90-29c32 0 41-27 41-63 0-35-9-62-40-62-32 0-39 29-40 63 0 36 9 62 39 62" id="aH"/><path fill="#333" d="M275 0h-61l-44-196L126 0H64L0-248h53L97-49l45-199h58l43 199 44-199h52" id="aI"/><path fill="#333" d="M135-150c-39-12-60 13-60 57V0H25l-1-190h47c2 13-1 29 3 40 6-28 27-53 61-41v41" id="aJ"/><path fill="#333" d="M25-224v-37h50v37H25zM25 0v-190h50V0H25" id="aK"/><g id="r"><use transform="matrix(0.04938271604938272,0,0,0.04938271604938272,0,0)" xlink:href="#aF"/><use transform="matrix(0.04938271604938272,0,0,0.04938271604938272,12.790123456790125,0)" xlink:href="#aG"/><use transform="matrix(0.04938271604938272,0,0,0.04938271604938272,22.66666666666667,0)" xlink:href="#aH"/><use transform="matrix(0.04938271604938272,0,0,0.04938271604938272,33.48148148148149,0)" xlink:href="#aI"/><use transform="matrix(0.04938271604938272,0,0,0.04938271604938272,49.87654320987655,0)" xlink:href="#aJ"/><use transform="matrix(0.04938271604938272,0,0,0.04938271604938272,56.79012345679014,0)" xlink:href="#aK"/><use transform="matrix(0.04938271604938272,0,0,0.04938271604938272,61.72839506172841,0)" xlink:href="#ay"/><use transform="matrix(0.04938271604938272,0,0,0.04938271604938272,67.60493827160495,0)" xlink:href="#aG"/></g><path fill="#333" d="M169-182c-1-43-94-46-97-3 18 66 151 10 154 114 3 95-165 93-204 36-6-8-10-19-12-30l50-8c3 46 112 56 116 5-17-69-150-10-154-114-4-87 153-88 188-35 5 8 8 18 10 28" id="aL"/><path fill="#333" d="M190-63c-7 42-38 67-86 67-59 0-84-38-90-98-12-110 154-137 174-36l-49 2c-2-19-15-32-35-32-30 0-35 28-38 64-6 74 65 87 74 30" id="aM"/><g id="s"><use transform="matrix(0.04938271604938272,0,0,0.04938271604938272,0,0)" xlink:href="#as"/><use transform="matrix(0.04938271604938272,0,0,0.04938271604938272,12.790123456790125,0)" xlink:href="#aA"/><use transform="matrix(0.04938271604938272,0,0,0.04938271604938272,23.60493827160494,0)" xlink:href="#aB"/><use transform="matrix(0.04938271604938272,0,0,0.04938271604938272,36.39506172839506,0)" xlink:href="#aL"/><use transform="matrix(0.04938271604938272,0,0,0.04938271604938272,48.24691358024692,0)" xlink:href="#aJ"/><use transform="matrix(0.04938271604938272,0,0,0.04938271604938272,55.1604938271605,0)" xlink:href="#aM"/></g><path fill="#333" d="M230 0l2-204L168 0h-37L68-204 70 0H24v-248h70l56 185 57-185h69V0h-46" id="aN"/><g id="t"><use transform="matrix(0.04938271604938272,0,0,0.04938271604938272,0,0)" xlink:href="#aN"/><use transform="matrix(0.04938271604938272,0,0,0.04938271604938272,14.765432098765434,0)" xlink:href="#aG"/><use transform="matrix(0.04938271604938272,0,0,0.04938271604938272,24.641975308641978,0)" xlink:href="#aD"/><use transform="matrix(0.04938271604938272,0,0,0.04938271604938272,40.44444444444445,0)" xlink:href="#aI"/><use transform="matrix(0.04938271604938272,0,0,0.04938271604938272,56.83950617283951,0)" xlink:href="#aJ"/><use transform="matrix(0.04938271604938272,0,0,0.04938271604938272,63.75308641975309,0)" xlink:href="#aK"/><use transform="matrix(0.04938271604938272,0,0,0.04938271604938272,68.69135802469137,0)" xlink:href="#ay"/><use transform="matrix(0.04938271604938272,0,0,0.04938271604938272,74.56790123456791,0)" xlink:href="#aG"/></g><path fill="#333" d="M140-251c80 0 125 45 125 126S219 4 139 4C58 4 15-44 15-125s44-126 125-126zm-1 214c52 0 73-35 73-88 0-50-21-86-72-86-52 0-73 35-73 86s22 88 72 88" id="aO"/><g id="u"><use transform="matrix(0.04938271604938272,0,0,0.04938271604938272,0,0)" xlink:href="#as"/><use transform="matrix(0.04938271604938272,0,0,0.04938271604938272,12.790123456790125,0)" xlink:href="#aA"/><use transform="matrix(0.04938271604938272,0,0,0.04938271604938272,23.60493827160494,0)" xlink:href="#aB"/><use transform="matrix(0.04938271604938272,0,0,0.04938271604938272,36.39506172839506,0)" xlink:href="#aO"/><use transform="matrix(0.04938271604938272,0,0,0.04938271604938272,50.22222222222223,0)" xlink:href="#aE"/></g><path fill="#333" d="M182-130c37 4 62 22 62 59C244 23 116-4 24 0v-248c84 5 203-23 205 63 0 31-19 50-47 55zM76-148c40-3 101 13 101-30 0-44-60-28-101-31v61zm0 110c48-3 116 14 116-37 0-48-69-32-116-35v72" id="aP"/><path fill="#333" d="M133-34C117-15 103 5 69 4 32 3 11-16 11-54c-1-60 55-63 116-61 1-26-3-47-28-47-18 1-26 9-28 27l-52-2c7-38 36-58 82-57s74 22 75 68l1 82c-1 14 12 18 25 15v27c-30 8-71 5-69-32zm-48 3c29 0 43-24 42-57-32 0-66-3-65 30 0 17 8 27 23 27" id="aQ"/><path fill="#333" d="M135-194c87-1 58 113 63 194h-50c-7-57 23-157-34-157-59 0-34 97-39 157H25l-1-190h47c2 12-1 28 3 38 12-26 28-41 61-42" id="aR"/><path fill="#333" d="M114-157C55-157 80-60 75 0H25v-261h50l-1 109c12-26 28-41 61-42 86-1 58 113 63 194h-50c-7-57 23-157-34-157" id="aS"/><g id="v"><use transform="matrix(0.04938271604938272,0,0,0.04938271604938272,0,0)" xlink:href="#aP"/><use transform="matrix(0.04938271604938272,0,0,0.04938271604938272,12.790123456790125,0)" xlink:href="#aJ"/><use transform="matrix(0.04938271604938272,0,0,0.04938271604938272,19.703703703703706,0)" xlink:href="#aQ"/><use transform="matrix(0.04938271604938272,0,0,0.04938271604938272,29.58024691358025,0)" xlink:href="#aR"/><use transform="matrix(0.04938271604938272,0,0,0.04938271604938272,40.39506172839506,0)" xlink:href="#aM"/><use transform="matrix(0.04938271604938272,0,0,0.04938271604938272,50.27160493827161,0)" xlink:href="#aS"/></g><path fill="#333" d="M88-194c31-1 46 15 58 34l-1-101h50l1 261h-48c-2-10 0-23-3-31C134-8 116 4 84 4 32 4 16-41 15-95c0-56 19-97 73-99zm17 164c33 0 40-30 41-66 1-37-9-64-41-64s-38 30-39 65c0 43 13 65 39 65" id="aT"/><g id="w"><use transform="matrix(0.04938271604938272,0,0,0.04938271604938272,0,0)" xlink:href="#aN"/><use transform="matrix(0.04938271604938272,0,0,0.04938271604938272,14.765432098765434,0)" xlink:href="#aG"/><use transform="matrix(0.04938271604938272,0,0,0.04938271604938272,24.641975308641978,0)" xlink:href="#aD"/><use transform="matrix(0.04938271604938272,0,0,0.04938271604938272,40.44444444444445,0)" xlink:href="#aF"/><use transform="matrix(0.04938271604938272,0,0,0.04938271604938272,53.23456790123457,0)" xlink:href="#aG"/><use transform="matrix(0.04938271604938272,0,0,0.04938271604938272,63.111111111111114,0)" xlink:href="#aQ"/><use transform="matrix(0.04938271604938272,0,0,0.04938271604938272,72.98765432098767,0)" xlink:href="#aT"/></g><path d="M24-248c120-7 223 5 221 122C244-46 201 0 124 0H24v-248zM76-40c74 7 117-18 117-86 0-67-45-88-117-82v168" id="aU"/><path d="M25-224v-37h50v37H25zM25 0v-190h50V0H25" id="aV"/><path d="M133-34C117-15 103 5 69 4 32 3 11-16 11-54c-1-60 55-63 116-61 1-26-3-47-28-47-18 1-26 9-28 27l-52-2c7-38 36-58 82-57s74 22 75 68l1 82c-1 14 12 18 25 15v27c-30 8-71 5-69-32zm-48 3c29 0 43-24 42-57-32 0-66-3-65 30 0 17 8 27 23 27" id="aW"/><path d="M195-6C206 82 75 100 31 46c-4-6-6-13-8-21l49-6c3 16 16 24 34 25 40 0 42-37 40-79-11 22-30 35-61 35-53 0-70-43-70-97 0-56 18-96 73-97 30 0 46 14 59 34l2-30h47zm-90-29c32 0 41-27 41-63 0-35-9-62-40-62-32 0-39 29-40 63 0 36 9 62 39 62" id="aX"/><path d="M135-150c-39-12-60 13-60 57V0H25l-1-190h47c2 13-1 29 3 40 6-28 27-53 61-41v41" id="aY"/><path d="M220-157c-53 9-28 100-34 157h-49v-107c1-27-5-49-29-50C55-147 81-57 75 0H25l-1-190h47c2 12-1 28 3 38 10-53 101-56 108 0 13-22 24-43 59-42 82 1 51 116 57 194h-49v-107c-1-25-5-48-29-50" id="aZ"/><g id="x"><use transform="matrix(0.05,0,0,0.05,0,0)" xlink:href="#aU"/><use transform="matrix(0.05,0,0,0.05,12.950000000000001,0)" xlink:href="#aV"/><use transform="matrix(0.05,0,0,0.05,17.950000000000003,0)" xlink:href="#aW"/><use transform="matrix(0.05,0,0,0.05,27.950000000000003,0)" xlink:href="#aX"/><use transform="matrix(0.05,0,0,0.05,38.900000000000006,0)" xlink:href="#aY"/><use transform="matrix(0.05,0,0,0.05,45.900000000000006,0)" xlink:href="#aW"/><use transform="matrix(0.05,0,0,0.05,55.900000000000006,0)" xlink:href="#aZ"/></g><path d="M195 0l-88-114-31 24V0H24v-248h52v113l112-113h60L142-143 257 0h-62" id="ba"/><path d="M185-48c-13 30-37 53-82 52C43 2 14-33 14-96s30-98 90-98c62 0 83 45 84 108H66c0 31 8 55 39 56 18 0 30-7 34-22zm-45-69c5-46-57-63-70-21-2 6-4 13-4 21h74" id="bb"/><path d="M123 10C108 53 80 86 19 72V37c35 8 53-11 59-39L3-190h52l48 148c12-52 28-100 44-148h51" id="bc"/><g id="y"><use transform="matrix(0.05,0,0,0.05,0,0)" xlink:href="#ba"/><use transform="matrix(0.05,0,0,0.05,12.950000000000001,0)" xlink:href="#bb"/><use transform="matrix(0.05,0,0,0.05,22.950000000000003,0)" xlink:href="#bc"/></g><path d="M67-93c0 74 22 123 53 168H70C40 30 18-18 18-93s22-123 52-168h50c-32 44-53 94-53 168" id="bd"/><path d="M182-130c37 4 62 22 62 59C244 23 116-4 24 0v-248c84 5 203-23 205 63 0 31-19 50-47 55zM76-148c40-3 101 13 101-30 0-44-60-28-101-31v61zm0 110c48-3 116 14 116-37 0-48-69-32-116-35v72" id="be"/><path d="M115-3C79 11 28 4 28-45v-112H4v-33h27l15-45h31v45h36v33H77v99c-1 23 16 31 38 25v30" id="bf"/><path d="M102-93c0 74-22 123-52 168H0C30 29 54-18 53-93c0-74-22-123-53-168h50c30 45 52 94 52 168" id="bg"/><g id="z"><use transform="matrix(0.05,0,0,0.05,0,0)" xlink:href="#bd"/><use transform="matrix(0.05,0,0,0.05,5.95,0)" xlink:href="#be"/><use transform="matrix(0.05,0,0,0.05,18.900000000000002,0)" xlink:href="#bb"/><use transform="matrix(0.05,0,0,0.05,28.900000000000002,0)" xlink:href="#bf"/><use transform="matrix(0.05,0,0,0.05,34.85,0)" xlink:href="#aW"/><use transform="matrix(0.05,0,0,0.05,44.85,0)" xlink:href="#bg"/></g><path d="M212-179c-10-28-35-45-73-45-59 0-87 40-87 99 0 60 29 101 89 101 43 0 62-24 78-52l27 14C228-24 195 4 139 4 59 4 22-46 18-125c-6-104 99-153 187-111 19 9 31 26 39 46" id="bh"/><path d="M100-194c62-1 85 37 85 99 1 63-27 99-86 99S16-35 15-95c0-66 28-99 85-99zM99-20c44 1 53-31 53-75 0-43-8-75-51-75s-53 32-53 75 10 74 51 75" id="bi"/><path d="M117-194c89-4 53 116 60 194h-32v-121c0-31-8-49-39-48C34-167 62-67 57 0H25l-1-190h30c1 10-1 24 2 32 11-22 29-35 61-36" id="bj"/><path d="M59-47c-2 24 18 29 38 22v24C64 9 27 4 27-40v-127H5v-23h24l9-43h21v43h35v23H59v120" id="bk"/><path d="M114-163C36-179 61-72 57 0H25l-1-190h30c1 12-1 29 2 39 6-27 23-49 58-41v29" id="bl"/><path d="M24 0v-261h32V0H24" id="bm"/><g id="A"><use transform="matrix(0.03888888888888889,0,0,0.03888888888888889,0,0)" xlink:href="#bh"/><use transform="matrix(0.03888888888888889,0,0,0.03888888888888889,10.072222222222223,0)" xlink:href="#bi"/><use transform="matrix(0.03888888888888889,0,0,0.03888888888888889,17.85,0)" xlink:href="#bj"/><use transform="matrix(0.03888888888888889,0,0,0.03888888888888889,25.627777777777776,0)" xlink:href="#bk"/><use transform="matrix(0.03888888888888889,0,0,0.03888888888888889,29.516666666666666,0)" xlink:href="#bl"/><use transform="matrix(0.03888888888888889,0,0,0.03888888888888889,34.144444444444446,0)" xlink:href="#bi"/><use transform="matrix(0.03888888888888889,0,0,0.03888888888888889,41.922222222222224,0)" xlink:href="#bm"/></g><path d="M153-248C145-148 188 4 80 4 36 3 13-21 6-62l32-5c4 25 16 42 43 43 27 0 39-20 39-49v-147H72v-28h81" id="bn"/><path d="M205 0l-28-72H64L36 0H1l101-248h38L239 0h-34zm-38-99l-47-123c-12 45-31 82-46 123h93" id="bo"/><path d="M30 0v-248h33v221h125V0H30" id="bp"/><path d="M0 4l72-265h28L28 4H0" id="bq"/><path d="M233-177c-1 41-23 64-60 70L243 0h-38l-65-103H63V0H30v-248c88 3 205-21 203 71zM63-129c60-2 137 13 137-47 0-61-80-42-137-45v92" id="br"/><path d="M68-38c1 34 0 65-14 84H32c9-13 17-26 17-46H33v-38h35" id="bs"/><g id="B"><use transform="matrix(0.03888888888888889,0,0,0.03888888888888889,0,0)" xlink:href="#bn"/><use transform="matrix(0.03888888888888889,0,0,0.03888888888888889,7,0)" xlink:href="#bo"/><use transform="matrix(0.03888888888888889,0,0,0.03888888888888889,16.333333333333336,0)" xlink:href="#bp"/><use transform="matrix(0.03888888888888889,0,0,0.03888888888888889,24.111111111111114,0)" xlink:href="#bq"/><use transform="matrix(0.03888888888888889,0,0,0.03888888888888889,28.000000000000004,0)" xlink:href="#br"/><use transform="matrix(0.03888888888888889,0,0,0.03888888888888889,38.07222222222222,0)" xlink:href="#bs"/></g><path d="M232-93c-1 65-40 97-104 97C67 4 28-28 28-90v-158h33c8 89-33 224 67 224 102 0 64-133 71-224h33v155" id="bt"/><path d="M33 0v-248h34V0H33" id="bu"/><path d="M30-248c87 1 191-15 191 75 0 78-77 80-158 76V0H30v-248zm33 125c57 0 124 11 124-50 0-59-68-47-124-48v98" id="bv"/><g id="C"><use transform="matrix(0.03888888888888889,0,0,0.03888888888888889,0,0)" xlink:href="#bo"/><use transform="matrix(0.03888888888888889,0,0,0.03888888888888889,9.333333333333334,0)" xlink:href="#bt"/><use transform="matrix(0.03888888888888889,0,0,0.03888888888888889,19.40555555555556,0)" xlink:href="#bu"/><use transform="matrix(0.03888888888888889,0,0,0.03888888888888889,23.294444444444448,0)" xlink:href="#bv"/><use transform="matrix(0.03888888888888889,0,0,0.03888888888888889,32.62777777777778,0)" xlink:href="#bh"/></g><g id="D"><use transform="matrix(0.04938271604938272,0,0,0.04938271604938272,0,0)" xlink:href="#aN"/><use transform="matrix(0.04938271604938272,0,0,0.04938271604938272,14.765432098765434,0)" xlink:href="#aG"/><use transform="matrix(0.04938271604938272,0,0,0.04938271604938272,24.641975308641978,0)" xlink:href="#aD"/><use transform="matrix(0.04938271604938272,0,0,0.04938271604938272,40.44444444444445,0)" xlink:href="#ay"/><use transform="matrix(0.04938271604938272,0,0,0.04938271604938272,46.320987654320994,0)" xlink:href="#aw"/><use transform="matrix(0.04938271604938272,0,0,0.04938271604938272,57.135802469135804,0)" xlink:href="#aF"/><use transform="matrix(0.04938271604938272,0,0,0.04938271604938272,69.92592592592594,0)" xlink:href="#aG"/><use transform="matrix(0.04938271604938272,0,0,0.04938271604938272,79.80246913580248,0)" xlink:href="#aH"/></g><path fill="#333" d="M24-248c93 1 206-16 204 79-1 75-69 88-152 82V0H24v-248zm52 121c47 0 100 7 100-41 0-47-54-39-100-39v80" id="bw"/><path fill="#333" d="M67-125c0 53 21 87 73 88 37 1 54-22 65-47l45 17C233-25 199 4 140 4 58 4 20-42 15-125 8-235 124-281 211-232c18 10 29 29 36 50l-46 12c-8-25-30-41-62-41-52 0-71 34-72 86" id="bx"/><path fill="#333" d="M125-100v72H85v-72H15v-39h70v-72h40v72h71v39h-71" id="by"/><path fill="#333" d="M165-50V0h-47v-50H5v-38l105-160h55v161h33v37h-33zm-47-37l2-116L46-87h72" id="bz"/><g id="E"><use transform="matrix(0.04938271604938272,0,0,0.04938271604938272,0,0)" xlink:href="#bw"/><use transform="matrix(0.04938271604938272,0,0,0.04938271604938272,11.851851851851853,0)" xlink:href="#bx"/><use transform="matrix(0.04938271604938272,0,0,0.04938271604938272,24.641975308641978,0)" xlink:href="#by"/><use transform="matrix(0.04938271604938272,0,0,0.04938271604938272,35.01234567901235,0)" xlink:href="#bz"/><use transform="matrix(0.04938271604938272,0,0,0.04938271604938272,44.88888888888889,0)" xlink:href="#ay"/><use transform="matrix(0.04938271604938272,0,0,0.04938271604938272,50.76543209876544,0)" xlink:href="#aw"/><use transform="matrix(0.04938271604938272,0,0,0.04938271604938272,61.580246913580254,0)" xlink:href="#aF"/><use transform="matrix(0.04938271604938272,0,0,0.04938271604938272,74.37037037037038,0)" xlink:href="#aG"/><use transform="matrix(0.04938271604938272,0,0,0.04938271604938272,84.24691358024693,0)" xlink:href="#aH"/><use transform="matrix(0.04938271604938272,0,0,0.04938271604938272,95.06172839506173,0)" xlink:href="#az"/></g><g id="F"><use transform="matrix(0.04938271604938272,0,0,0.04938271604938272,0,0)" xlink:href="#as"/><use transform="matrix(0.04938271604938272,0,0,0.04938271604938272,12.790123456790125,0)" xlink:href="#aT"/><use transform="matrix(0.04938271604938272,0,0,0.04938271604938272,23.60493827160494,0)" xlink:href="#aT"/><use transform="matrix(0.04938271604938272,0,0,0.04938271604938272,34.41975308641975,0)" xlink:href="#aG"/><use transform="matrix(0.04938271604938272,0,0,0.04938271604938272,44.2962962962963,0)" xlink:href="#aJ"/><use transform="matrix(0.04938271604938272,0,0,0.04938271604938272,51.20987654320988,0)" xlink:href="#ay"/><use transform="matrix(0.04938271604938272,0,0,0.04938271604938272,57.086419753086425,0)" xlink:href="#aw"/><use transform="matrix(0.04938271604938272,0,0,0.04938271604938272,67.90123456790124,0)" xlink:href="#aF"/><use transform="matrix(0.04938271604938272,0,0,0.04938271604938272,80.69135802469137,0)" xlink:href="#aG"/><use transform="matrix(0.04938271604938272,0,0,0.04938271604938272,90.56790123456791,0)" xlink:href="#aH"/></g><g id="G"><use transform="matrix(0.04938271604938272,0,0,0.04938271604938272,0,0)" xlink:href="#aB"/><use transform="matrix(0.04938271604938272,0,0,0.04938271604938272,12.790123456790125,0)" xlink:href="#aE"/><use transform="matrix(0.04938271604938272,0,0,0.04938271604938272,23.60493827160494,0)" xlink:href="#aT"/><use transform="matrix(0.04938271604938272,0,0,0.04938271604938272,34.41975308641975,0)" xlink:href="#aQ"/><use transform="matrix(0.04938271604938272,0,0,0.04938271604938272,44.2962962962963,0)" xlink:href="#ay"/><use transform="matrix(0.04938271604938272,0,0,0.04938271604938272,50.17283950617284,0)" xlink:href="#aG"/><use transform="matrix(0.04938271604938272,0,0,0.04938271604938272,60.04938271604939,0)" xlink:href="#bw"/><use transform="matrix(0.04938271604938272,0,0,0.04938271604938272,71.90123456790124,0)" xlink:href="#bx"/></g><path fill="#3a414a" d="M160-131c35 5 61 23 61 61C221 17 115-2 30 0v-248c76 3 177-17 177 60 0 33-19 50-47 57zm-97-11c50-1 110 9 110-42 0-47-63-36-110-37v79zm0 115c55-2 124 14 124-45 0-56-70-42-124-44v89" id="bA"/><g id="H"><use transform="matrix(0.06172839506172839,0,0,0.06172839506172839,0,0)" xlink:href="#bA"/><use transform="matrix(0.06172839506172839,0,0,0.06172839506172839,14.814814814814813,0)" xlink:href="#ah"/></g><g id="I"><use transform="matrix(0.04938271604938272,0,0,0.04938271604938272,0,0)" xlink:href="#bw"/><use transform="matrix(0.04938271604938272,0,0,0.04938271604938272,11.851851851851853,0)" xlink:href="#bx"/><use transform="matrix(0.04938271604938272,0,0,0.04938271604938272,24.641975308641978,0)" xlink:href="#by"/><use transform="matrix(0.04938271604938272,0,0,0.04938271604938272,35.01234567901235,0)" xlink:href="#bz"/><use transform="matrix(0.04938271604938272,0,0,0.04938271604938272,44.88888888888889,0)" xlink:href="#ay"/><use transform="matrix(0.04938271604938272,0,0,0.04938271604938272,50.76543209876544,0)" xlink:href="#aw"/><use transform="matrix(0.04938271604938272,0,0,0.04938271604938272,61.580246913580254,0)" xlink:href="#aF"/><use transform="matrix(0.04938271604938272,0,0,0.04938271604938272,74.37037037037038,0)" xlink:href="#aG"/><use transform="matrix(0.04938271604938272,0,0,0.04938271604938272,84.24691358024693,0)" xlink:href="#aH"/></g><path fill="#3a414a" d="M85-194c31 0 48 13 60 33l-1-100h32l1 261h-30c-2-10 0-23-3-31C134-8 116 4 85 4 32 4 16-35 15-94c0-66 23-100 70-100zm9 24c-40 0-46 34-46 75 0 40 6 74 45 74 42 0 51-32 51-76 0-42-9-74-50-73" id="bB"/><g id="K"><use transform="matrix(0.04320987654320987,0,0,0.04320987654320987,0,0)" xlink:href="#al"/><use transform="matrix(0.04320987654320987,0,0,0.04320987654320987,10.370370370370368,0)" xlink:href="#bB"/><use transform="matrix(0.04320987654320987,0,0,0.04320987654320987,19.01234567901234,0)" xlink:href="#bB"/><use transform="matrix(0.04320987654320987,0,0,0.04320987654320987,27.654320987654316,0)" xlink:href="#O"/><use transform="matrix(0.04320987654320987,0,0,0.04320987654320987,36.29629629629629,0)" xlink:href="#T"/></g><g id="L"><use transform="matrix(0.04320987654320987,0,0,0.04320987654320987,0,0)" xlink:href="#al"/><use transform="matrix(0.04320987654320987,0,0,0.04320987654320987,10.370370370370368,0)" xlink:href="#am"/><use transform="matrix(0.04320987654320987,0,0,0.04320987654320987,19.01234567901234,0)" xlink:href="#ah"/></g><path fill="#333" d="M144 0l-44-69L55 0H2l70-98-66-92h53l41 62 40-62h54l-67 91 71 99h-54" id="bC"/><path fill="#333" d="M101-251c68 0 84 54 84 127C185-50 166 4 99 4S15-52 14-124c-1-75 17-127 87-127zm-1 216c37-5 36-46 36-89s4-89-36-89c-39 0-36 45-36 89 0 43-3 85 36 89" id="bD"/><g id="M"><use transform="matrix(0.04938271604938272,0,0,0.04938271604938272,0,0)" xlink:href="#bC"/><use transform="matrix(0.04938271604938272,0,0,0.04938271604938272,9.876543209876544,0)" xlink:href="#bD"/></g></defs></g></svg>